<svg width="40" height="37" viewBox="0 0 40 37" fill="none" xmlns="http://www.w3.org/2000/svg">
<path d="M32.8333 10.3334L33.5077 5.94963C33.8868 3.4856 36.007 1.66669 38.5 1.66669M32.8333 10.3334L30.6813 24.3217C30.1934 27.4926 27.465 29.8334 24.2568 29.8334H9.04743C6.00088 29.8334 3.3631 27.7174 2.70221 24.7434L1.25776 18.2434C0.355689 14.1841 3.44462 10.3334 7.60298 10.3334H32.8333ZM25.8818 34.1667C25.8818 35.0641 25.1543 35.7917 24.2568 35.7917C23.3594 35.7917 22.6318 35.0641 22.6318 34.1667C22.6318 33.2692 23.3594 32.5417 24.2568 32.5417C25.1543 32.5417 25.8818 33.2692 25.8818 34.1667ZM10.125 34.1667C10.125 35.0641 9.39744 35.7917 8.49998 35.7917C7.60251 35.7917 6.87498 35.0641 6.87498 34.1667C6.87498 33.2692 7.60251 32.5417 8.49998 32.5417C9.39744 32.5417 10.125 33.2692 10.125 34.1667Z" stroke="#464646" stroke-width="2" stroke-linecap="round" stroke-linejoin="round"/>
</svg>
