<svg width="70" height="70" viewBox="0 0 70 70" fill="none" xmlns="http://www.w3.org/2000/svg">
<g clip-path="url(#clip0_17_43)">
<path d="M35 25.2342C40.3935 25.2342 44.7658 20.8619 44.7658 15.4684C44.7658 10.0749 40.3935 5.70264 35 5.70264C29.6065 5.70264 25.2342 10.0749 25.2342 15.4684C25.2342 20.8619 29.6065 25.2342 35 25.2342Z" stroke="#333333" stroke-width="2" stroke-linecap="round" stroke-linejoin="round"/>
<path d="M28.0915 14.2863C31.9051 18.1 31.9051 24.2838 28.0915 28.0974C24.2778 31.9111 18.094 31.9111 14.2804 28.0974C10.4667 24.2838 10.4667 18.1 14.2804 14.2863C18.094 10.4727 24.2778 10.4727 28.0915 14.2863Z" stroke="#333333" stroke-width="2" stroke-linecap="round" stroke-linejoin="round"/>
<path d="M15.4684 44.7658C20.8619 44.7658 25.2342 40.3935 25.2342 35C25.2342 29.6065 20.8619 25.2342 15.4684 25.2342C10.0749 25.2342 5.70264 29.6065 5.70264 35C5.70264 40.3935 10.0749 44.7658 15.4684 44.7658Z" stroke="#333333" stroke-width="2" stroke-linecap="round" stroke-linejoin="round"/>
<path d="M21.1889 58.5769C26.5824 58.5769 30.9547 54.2046 30.9547 48.8111C30.9547 43.4176 26.5824 39.0453 21.1889 39.0453C15.7954 39.0453 11.4231 43.4176 11.4231 48.8111C11.4231 54.2046 15.7954 58.5769 21.1889 58.5769Z" stroke="#333333" stroke-width="2" stroke-linecap="round" stroke-linejoin="round"/>
<path d="M38.2685 63.734C43.3504 61.9274 46.0056 56.3431 44.199 51.2612C42.3924 46.1793 36.8081 43.5241 31.7262 45.3307C26.6443 47.1373 23.9891 52.7215 25.7957 57.8035C27.6023 62.8854 33.1865 65.5406 38.2685 63.734Z" stroke="#333333" stroke-width="2" stroke-linecap="round" stroke-linejoin="round"/>
<path d="M41.9026 55.7137C38.0889 51.9 38.0889 45.7162 41.9026 41.9026C45.7162 38.0889 51.9 38.0889 55.7137 41.9026C59.5273 45.7162 59.5273 51.9 55.7137 55.7137C51.9 59.5273 45.7162 59.5273 41.9026 55.7137Z" stroke="#333333" stroke-width="2" stroke-linecap="round" stroke-linejoin="round"/>
<path d="M54.5316 44.7658C59.9251 44.7658 64.2973 40.3935 64.2973 35C64.2973 29.6065 59.9251 25.2342 54.5316 25.2342C49.1381 25.2342 44.7658 29.6065 44.7658 35C44.7658 40.3935 49.1381 44.7658 54.5316 44.7658Z" stroke="#333333" stroke-width="2" stroke-linecap="round" stroke-linejoin="round"/>
<path d="M48.8111 30.9547C54.2046 30.9547 58.5769 26.5824 58.5769 21.1889C58.5769 15.7954 54.2046 11.4231 48.8111 11.4231C43.4176 11.4231 39.0453 15.7954 39.0453 21.1889C39.0453 26.5824 43.4176 30.9547 48.8111 30.9547Z" stroke="#333333" stroke-width="2" stroke-linecap="round" stroke-linejoin="round"/>
<path d="M41.0448 36.3767C41.8089 33.038 39.7217 29.712 36.3829 28.9479C33.0442 28.1838 29.7182 30.271 28.9541 33.6098C28.19 36.9486 30.2772 40.2745 33.616 41.0386C36.9548 41.8027 40.2807 39.7155 41.0448 36.3767Z" stroke="#333333" stroke-width="2" stroke-linecap="round" stroke-linejoin="round"/>
<path d="M35 68.9605C53.7558 68.9605 68.9605 53.7558 68.9605 35C68.9605 16.2442 53.7558 1.03955 35 1.03955C16.2442 1.03955 1.03955 16.2442 1.03955 35C1.03955 53.7558 16.2442 68.9605 35 68.9605Z" stroke="#333333" stroke-width="2" stroke-linecap="round" stroke-linejoin="round"/>
</g>
<defs>
<clipPath id="clip0_17_43">
<rect width="70" height="70" fill="white"/>
</clipPath>
</defs>
</svg>
